<?xml version="1.0" encoding="utf-8"?>
<!-- Generator: Adobe Illustrator 15.1.0, SVG Export Plug-In . SVG Version: 6.00 Build 0)  -->
<!DOCTYPE svg PUBLIC "-//W3C//DTD SVG 1.1//EN" "http://www.w3.org/Graphics/SVG/1.1/DTD/svg11.dtd">
<svg version="1.1" id="Layer_1" xmlns="http://www.w3.org/2000/svg" xmlns:xlink="http://www.w3.org/1999/xlink" x="0px" y="0px"
	 width="29.843px" height="27.678px" viewBox="0 0 29.843 27.678" enable-background="new 0 0 29.843 27.678" xml:space="preserve">
<g>
	<path d="M5.205,4.233c-0.084-0.468-0.468-1.2-1.547-1.2c-0.804,0-1.332,0.516-1.332,1.08c0,0.468,0.3,0.839,0.923,0.959
		l1.188,0.228c1.547,0.3,2.375,1.307,2.375,2.506c0,1.308-1.092,2.626-3.07,2.626c-2.255,0-3.25-1.451-3.382-2.662l1.535-0.408
		c0.072,0.84,0.66,1.595,1.859,1.595c0.888,0,1.379-0.444,1.379-1.043c0-0.492-0.372-0.875-1.032-1.007l-1.187-0.24
		C1.559,6.392,0.684,5.517,0.684,4.233c0-1.511,1.355-2.663,2.962-2.663c2.063,0,2.854,1.247,3.046,2.207L5.205,4.233z"/>
	<path d="M15.045,1.571c2.314,0,4.377,1.691,4.377,4.438c0,2.734-2.063,4.425-4.377,4.425c-2.303,0-4.366-1.691-4.366-4.425
		C10.68,3.262,12.743,1.571,15.045,1.571z M15.045,8.827c1.319,0,2.663-0.912,2.663-2.831s-1.343-2.83-2.663-2.83
		c-1.308,0-2.651,0.911-2.651,2.83S13.738,8.827,15.045,8.827z"/>
	<path d="M23.831,10.254V1.75h5.325V3.31h-3.67v1.943h3.322v1.476h-3.322v1.967h3.67v1.559H23.831z"/>
	<path d="M10.149,17.722v6.932H8.482v-6.932H5.796V16.15h7.04v1.571H10.149z"/>
	<path d="M22.364,16.15h1.751l-3.154,8.503h-1.703l-3.142-8.503h1.811l2.219,6.321L22.364,16.15z"/>
</g>
</svg>
